# xmcd
#
# Track frame offsets: 
#        150
#        25171
#        42854
#        60031
#        81014
#        103381
#        124594
#        151870
#        174757
#        193053
#        211723
#        236508
#        258742
#
# Disc length: 3803 seconds
#
# Revision: 0
# Processed by: cddbd v1.5.2PL0 Copyright (c) Steve Scherf et al.
# Submitted via: ExactAudioCopyFreeDBPlugin 1.0
#
DISCID=9c0ed90d
DTITLE=DubInc - Paradise
DYEAR=1900
DGENRE=Reggae
TTITLE0=Revolution
TTITLE1=Better Run
TTITLE2=Paradise
TTITLE3=Chaque nouvelle page
TTITLE4=Partout dans ce monde
TTITLE5=Thet Want
TTITLE6=P'Oudach
TTITLE7=Il faut qu(on ose
TTITLE8=Sounde Good
TTITLE9=Hurricane
TTITLE10=Enfants des Ghettos
TTITLE11=Only Love
TTITLE12=Dub Controle
EXTD=
EXTT0=
EXTT1=
EXTT2=
EXTT3=
EXTT4=
EXTT5=
EXTT6=
EXTT7=
EXTT8=
EXTT9=
EXTT10=
EXTT11=
EXTT12=
PLAYORDER=
